<svg width="50" height="50" viewBox="0 0 50 50" fill="none" xmlns="http://www.w3.org/2000/svg">
<g clip-path="url(#clip0_5_17)">
<path fill-rule="evenodd" clip-rule="evenodd" d="M35.0513 2.37926C35.7051 -0.607643 39.9582 -0.626236 40.6379 2.35484L40.67 2.49576C40.6918 2.59184 40.7118 2.68059 40.7336 2.77308C41.5168 6.10912 44.2168 8.6582 47.5961 9.24616C50.7118 9.78816 50.7118 14.2604 47.5961 14.8024C44.1986 15.3935 41.4882 17.9667 40.7211 21.329L40.6379 21.6937C39.9582 24.6748 35.7051 24.6562 35.0513 21.6693L34.9827 21.3563C34.244 17.9817 31.5371 15.3893 28.1336 14.7972C25.0241 14.2563 25.024 9.7923 28.1336 9.25134C31.5252 8.66127 34.2252 6.08491 34.975 2.7275L35.0255 2.4972L35.0513 2.37926ZM27.4681 18.6227C20.7687 17.4572 20.1348 8.63923 25.5669 6.02598C25.0819 5.15112 24.5688 4.29155 24.0283 3.44879C23.7468 3.43869 23.4641 3.43359 23.1802 3.43359C22.8965 3.43359 22.614 3.43868 22.3327 3.44877C18.3135 9.71505 15.8143 16.9103 15.0696 24.4199H31.2914C31.1851 23.3487 31.0432 22.2838 30.8662 21.2271C30.2375 19.874 28.9791 18.8856 27.4681 18.6227ZM0.067426 24.4202C0.978244 14.8711 7.6726 7.00913 16.6077 4.37695C13.2849 10.5357 11.2256 17.3592 10.5853 24.4199H0.099136L0.067426 24.4202ZM0.099136 28.8842H10.5852C11.2251 35.945 13.2842 42.7686 16.6068 48.9275C7.67199 46.295 0.977997 38.4328 0.0673828 28.884L0.099136 28.8842ZM15.0695 28.8842C15.8139 36.3939 18.3128 43.5893 22.3318 49.8557C22.6133 49.8661 22.8962 49.8711 23.1802 49.8711C23.4645 49.8711 23.7475 49.8661 24.0292 49.8557C28.0482 43.5893 30.5471 36.3939 31.2916 28.8842H15.0695ZM46.2932 28.884C45.3825 38.4328 38.689 46.2946 29.7543 48.9271C33.0768 42.7682 35.1359 35.945 35.7757 28.8842H46.2625L46.2932 28.884Z" fill="#72FF78"/>
</g>
<defs>
<clipPath id="clip0_5_17">
<rect width="50" height="50" fill="white"/>
</clipPath>
</defs>
</svg>
