<svg width="37" height="38" viewBox="0 0 37 38" fill="none" xmlns="http://www.w3.org/2000/svg">
<g clip-path="url(#clip0_5_46)">
<path fill-rule="evenodd" clip-rule="evenodd" d="M15.6003 6.16032C15.8813 6.48172 16.0515 6.90252 16.0515 7.36305L16.0515 12.535L16.0515 30.6369C16.0515 31.6468 15.2328 32.4655 14.2229 32.4655C13.2131 32.4656 12.3944 31.6469 12.3944 30.637L12.3944 14.3636L9.05097 14.3636C8.31139 14.3636 7.64462 13.9181 7.36159 13.2348C7.07856 12.5515 7.23501 11.765 7.75797 11.242L12.9297 6.07027C13.2589 5.74107 13.6927 5.55691 14.1393 5.53641M14.3535 5.53906C14.5459 5.55281 14.7381 5.59713 14.9227 5.67364C15.0735 5.73618 15.2127 5.81728 15.3382 5.91375C15.0618 5.70074 14.7227 5.56514 14.3535 5.53906ZM23.8095 23.6364L23.8095 7.36305C23.8094 6.35319 22.9908 5.53451 21.9809 5.53447C20.9711 5.53445 20.1523 6.35317 20.1524 7.36303L20.1524 25.465L20.1524 30.637C20.1524 31.0975 20.3226 31.5182 20.6036 31.8397C20.6823 31.9299 20.7699 32.0125 20.8657 32.0862C21.1408 32.2982 21.4776 32.4335 21.8448 32.4605C21.9181 32.466 21.9915 32.467 22.0645 32.4636C22.505 32.4439 22.9049 32.2682 23.2105 31.9906C23.232 31.9708 23.2532 31.9506 23.2739 31.93L28.4459 26.758C28.9689 26.235 29.1254 25.4486 28.8423 24.7652C28.5592 24.0819 27.8925 23.6364 27.1529 23.6364L23.8095 23.6364Z" fill="#F0F0F0"/>
</g>
<defs>
<clipPath id="clip0_5_46">
<rect width="25.6" height="25.6" fill="white" transform="translate(0 19) rotate(-45)"/>
</clipPath>
</defs>
</svg>
